<?xml version="1.0" encoding="utf-8"?>
<?xml-stylesheet type="text/xsl" href="rss1.xsl"?>
<rss version="2.0" xmlns:atom="http://www.w3.org/2005/Atom" xmlns:content="http://purl.org/rss/1.0/modules/content/" xmlns:dc="http://purl.org/dc/elements/1.1/" xmlns:media="http://search.yahoo.com/mrss/">
<channel>
 <title>Getty</title>
 <link>http://www.gettyimg.com/</link>
 <atom:link href="http://www.gettyimg.com/" rel="self" type="application/rss+xml" />

 
                <item>
                <title><![CDATA[【HD Live Performances】WEB-RiP - Maisie Peters - Glastonbury Festival, UK, 2023 [1080p50] - caladan]]></title>
                <link><![CDATA[https://sharemania.us/threads/maisie-peters-glastonbury-festival-uk-2023-1080p50-caladan.224369/]]></link>
                <description><![CDATA[<article>
<blockquote class="messageText SelectQuoteContainer ugc baseHtml">
I downloaded this video from BBC iPlayer.<br>
<br>
Setlist:<br>
1. Body Better<br>
2. I'm Trying (Not Friends)<br>
3. Love Him I Don’t<br>
4. You're Just a Boy (And I'm Kinda the Man)<br>
5. Cate's Brother<br>
6. Not Another Rockstar<br>
7. Worst of You<br>
8. Villain<br>
9. Run<br>
10. You Signed Up for This<br>
11. Brooklyn<br>
12. John Hughes Movie<br>
13. Lost the Breakup<br>
14. Blonde<br>
<br>
<img src="https://i.postimg.cc/BZD4kPRG/Maisie-Peters-Glastonbury-Festival-UK-2023-mp4.jpg" class="bbCodeImage LbImage" alt="[​IMG]" data-url="https://i.postimg.cc/BZD4kPRG/Maisie-Peters-Glastonbury-Festival-UK-2023-mp4.jpg" style=""><br>
<br>
Mediainfo:<br>
<div class="ToggleTriggerAnchor bbCodeSpoilerContainer">
<button type="button" class="button bbCodeSpoilerButton ToggleTrigger Tooltip JsOnly" data-target="> .SpoilerTarget"><span>Spoiler</span></button>
<div class="SpoilerTarget bbCodeSpoilerText">General<br>
Complete name : E:\Glastonbury 2023\Maisie Peters - Glastonbury Festival, UK, 2023\Maisie Peters - Glastonbury Festival, UK, 2023.mp4<br>
Format : MPEG-4<br>
Format profile : Base Media<br>
Codec ID : isom (isom/iso2/avc1/mp41)<br>
File size : 3.98 GiB<br>
Duration : 54 min 3 s<br>
Overall bit rate mode : Variable<br>
Overall bit rate : 10.6 Mb/s<br>
Collection : Glastonbury: 2023<br>
Season : 2023<br>
Album : Glastonbury: 2023<br>
Album/Performer : BBC TV<br>
Part/Position : 2023<br>
Track name : Maisie Peters<br>
Grouping : Music,Pop &amp; Chart,Performances &amp; Events<br>
Performer : BBC Music<br>
Composer : BBC iPlayer<br>
Genre : Music<br>
ContentType : TV Show<br>
Description : Soft, sweet vocals and stunning storytelling from this rising singer-songwriter.<br>
Recorded date : UTC 2023-06-29 22:20:28<br>
Tagged date : UTC 2023-06-29 22:20:28<br>
Copyright : 2023 British Broadcasting Corporation, all rights reserved<br>
Cover : Yes<br>
Lyrics : Soft, sweet vocals and stunning storytelling from this rising singer-songwriter. / / PLAY: <a href="https://www.bbc.co.uk/iplayer/episode/p0fsyy2m" target="_blank" class="externalLink" rel="nofollow">https://www.bbc.co.uk/iplayer/episode/p0fsyy2m</a> / / INFO: <a href="https://www.bbc.co.uk/programmes/p0fsyy2m" target="_blank" class="externalLink" rel="nofollow">https://www.bbc.co.uk/programmes/p0fsyy2m</a><br>
Comment : Soft, sweet vocals and stunning storytelling from this rising singer-songwriter.<br>
Part_ID : p0fsyy2m<br>
TVNetworkName : BBC Music<br>
LongDescription : Soft, sweet vocals and stunning storytelling from this rising singer-songwriter. / / PLAY: <a href="https://www.bbc.co.uk/iplayer/episode/p0fsyy2m" target="_blank" class="externalLink" rel="nofollow">https://www.bbc.co.uk/iplayer/episode/p0fsyy2m</a> / / INFO: <a href="https://www.bbc.co.uk/programmes/p0fsyy2m" target="_blank" class="externalLink" rel="nofollow">https://www.bbc.co.uk/programmes/p0fsyy2m</a><br>
<br>
Video<br>
ID : 1<br>
Format : AVC<br>
Format/Info : Advanced Video Codec<br>
Format profile : High@L4.2<br>
Format settings : CABAC / 4 Ref Frames<br>
Format settings, CABAC : Yes<br>
Format settings, Reference frames : 4 frames<br>
Codec ID : avc1<br>
Codec ID/Info : Advanced Video Coding<br>
Duration : 54 min 3 s<br>
Bit rate mode : Variable<br>
Bit rate : 10.4 Mb/s<br>
Maximum bit rate : 12.0 Mb/s<br>
Width : 1 920 pixels<br>
Height : 1 080 pixels<br>
Display aspect ratio : 16:9<br>
Frame rate mode : Constant<br>
Frame rate : 50.000 FPS<br>
Color space : YUV<br>
Chroma subsampling : 4:2:0<br>
Bit depth : 8 bits<br>
Scan type : Progressive<br>
Bits/(Pixel*Frame) : 0.100<br>
Stream size : 3.93 GiB (99%)<br>
Color range : Limited<br>
Color primaries : BT.709<br>
Transfer characteristics : BT.709<br>
Matrix coefficients : BT.709<br>
Codec configuration box : avcC<br>
<br>
Audio<br>
ID : 2<br>
Format : AAC LC<br>
Format/Info : Advanced Audio Codec Low Complexity<br>
Codec ID : mp4a-40-2<br>
Duration : 54 min 3 s<br>
Bit rate mode : Variable<br>
Bit rate : 128 kb/s<br>
Maximum bit rate : 131 kb/s / 131 kb/s<br>
Channel(s) : 2 channels<br>
Channel layout : L R<br>
Sampling rate : 48.0 kHz<br>
Frame rate : 46.875 FPS (1024 SPF)<br>
Compression mode : Lossy<br>
Stream size : 49.5 MiB (1%)<br>
Language : English<br>
Default : Yes<br>
Alternate group : 1</div>
</div><br>
<div class="bbCodeBlock bbCodeVfcHH HiddenContent">
<div class="attribution type">Hidden Content:</div>
<blockquote>You must reply before you can see the hidden data contained here.</blockquote>
</div>
<div class="messageTextEndMarker">&nbsp;</div>
</blockquote>
</article>]]></description>
                <author><![CDATA[caladan]]></author>
                </item>

                </channel></rss>